PathFileType	4	(X/Y/Z)	C:\Users\WrightLab\Desktop\Jo\P3_12.trc
DataRate	CameraRate	NumFrames	NumMarkers	Units	OrigDataRate	OrigDataStartFrame	OrigNumFrames
100.00	100.00	       20	19	mm	100.00	149	       593
Frame#	Time	Headset_Front			Headset_Back			Headset_Left			Headset_Right			Left_Shoulder			Right_Shoulder			Sternum			C7			Left Elbow			Right Elbow			Left Wrist			Right Wrist			Left ASIS			Right ASIS			S2			Left Knee			Right Knee			Left Ankle			Right Ankle			
		X1	Y1	Z1	X2	Y2	Z2	X3	Y3	Z3	X4	Y4	Z4	X5	Y5	Z5	X6	Y6	Z6	X7	Y7	Z7	X8	Y8	Z8	X9	Y9	Z9	X10	Y10	Z10	X11	Y11	Z11	X12	Y12	Z12	X13	Y13	Z13	X14	Y14	Z14	X15	Y15	Z15	X16	Y16	Z16	X17	Y17	Z17	X18	Y18	Z18	X19	Y19	Z19	

149	1.480	-82.48164	1440.16577	1203.74377	9.62886	1658.28418	1391.77161	-124.15022	1567.36011	1366.80420	50.27516	1510.66980	1226.58093	-158.30556	1360.45654	1433.91833	192.39713	1391.72070	1437.71826	18.51647	1249.86841	1319.82996	14.81830	1430.75256	1485.50928	-295.11447	1059.97925	1407.25916	324.30597	1065.81335	1469.46985	-374.22101	921.78351	1271.12769	331.55441	916.58893	1290.79846	-60.61378	890.21643	1356.48987				45.55009	982.61475	1569.52661	-54.66779	505.29712	1241.54614	185.49585	476.58667	1435.30981	-24.56799	194.67101	1374.49731	165.76570	148.86894	1522.24109	
150	1.490	-82.92271	1438.99756	1197.43518	9.30735	1656.68030	1382.06946	-124.66156	1566.45886	1359.01685	50.06087	1510.45911	1217.58167	-158.56725	1359.21899	1427.05615	192.44862	1390.90869	1428.24475	17.57060	1248.80823	1311.52039	15.04171	1430.68896	1478.04565	-295.83130	1058.97778	1403.53760	324.97690	1065.35193	1459.95215	-375.32175	920.30316	1268.54138	330.77072	915.66174	1280.82495	-61.20275	889.21893	1350.69336				45.63681	981.91748	1561.82288	-55.81708	504.86917	1233.59387	184.32211	475.31335	1431.83435	-23.57537	187.58420	1347.33044	165.43547	148.86357	1521.08215	
151	1.500	-84.00954	1438.03491	1190.28333	8.39512	1656.39075	1373.57874	-125.46465	1565.37610	1351.41321	49.26810	1508.64966	1209.21143	-158.64972	1358.60999	1419.63513	192.26414	1389.76270	1419.61340	17.05568	1247.53503	1302.73303	15.39078	1428.99365	1468.83582	-296.19427	1057.90759	1399.51648	324.77023	1063.70422	1449.38928	-376.88104	918.39789	1265.94067	329.47003	914.88348	1269.53406	-61.46043	887.96942	1340.57190				45.39720	981.22882	1553.46716	-57.06958	504.56128	1225.99854	183.72076	474.98514	1428.88062	-22.25315	179.86839	1318.99902	164.89565	148.92871	1519.77344	
152	1.510	-86.37234	1436.69312	1181.29260	7.90244	1655.26404	1365.37988	-125.99725	1564.36951	1343.56360	48.74858	1509.01709	1200.17615	-158.97787	1357.32080	1413.02185	192.03835	1388.53418	1409.53247	15.69507	1246.40991	1294.17981	15.85267	1428.14685	1460.51563	-296.10690	1056.15906	1395.66260	324.52866	1062.55029	1438.88721	-378.98660	916.65601	1263.93896	328.24670	913.43811	1259.70117	-61.80851	887.89722	1332.12927				44.86349	979.87140	1544.48389	-58.15126	502.27991	1218.99792	182.18163	473.54733	1424.87854	-22.47984	174.28548	1292.09229	164.06583	148.86009	1518.89807	
153	1.520	-87.65298	1434.68701	1173.84131	7.54784	1654.02881	1356.20642	-126.63726	1562.88501	1335.78845	46.40740	1505.98193	1191.13025	-159.08179	1356.02942	1406.26965	192.07016	1387.05823	1400.95093	15.50308	1245.31555	1286.67664	16.17547	1426.88904	1452.57996	-295.76108	1054.27527	1391.60986	325.17123	1060.89526	1428.58862	-380.24902	914.55743	1261.24524	326.31351	912.30902	1249.21997	-62.44156	886.09625	1323.29968				44.91052	978.49750	1536.06213	-59.20527	500.67429	1212.26953	181.04832	472.28229	1420.96802	-22.87815	169.09656	1264.93323	163.51569	148.60648	1518.17175	
154	1.530	-89.38477	1433.81458	1165.86890	6.29291	1653.32507	1350.70142	-127.62357	1561.54480	1328.16260				-159.51770	1354.72424	1399.04114	191.79747	1385.55872	1391.39563	14.27503	1243.79041	1277.50354	15.85170	1425.55225	1443.91113	-296.00098	1052.69751	1387.69653	325.20557	1059.40491	1419.34094	-380.64163	911.26428	1259.62622	324.91916	910.80823	1239.15625	-63.06896	884.13226	1316.26074				44.69331	977.37646	1528.12036	-60.33427	498.41858	1207.05518	180.31171	471.49573	1416.17993	-23.26448	164.74454	1238.69653	162.67815	148.53151	1517.56726	
155	1.540	-90.62004	1432.52454	1158.62842	5.89238	1651.79614	1342.20178	-128.31497	1560.18982	1320.48315	44.40101	1503.65662	1173.73560	-159.84743	1353.10059	1391.96094	191.06326	1383.68103	1381.97668	13.02389	1242.34546	1269.40002	15.54978	1423.75195	1435.72327	-296.09995	1050.77051	1383.71863	323.85431	1057.49255	1408.60767	-381.67429	908.95917	1257.07947	322.84134	908.69330	1229.44092	-63.95753	882.64899	1306.81360				43.94394	975.58063	1519.13379	-61.39524	495.06912	1201.87329	179.70573	470.70209	1412.66357	-24.25498	161.66153	1212.63794	162.31383	148.50841	1516.98376	
156	1.550	-92.57666	1430.26367	1150.25781	5.31987	1650.19434	1333.85645	-128.78171	1558.56531	1312.69226	43.54295	1501.71509	1164.40869	-160.51094	1351.66541	1384.87256	190.86816	1381.77881	1373.40063	11.74900	1241.12793	1260.60535	15.49322	1422.71863	1427.47009	-295.61130	1048.55847	1379.64587	323.70944	1055.58984	1398.17676	-382.26907	905.90686	1253.92554	321.07300	906.37976	1219.28564	-65.03606	881.10266	1298.21924				43.82899	973.63147	1509.63635	-62.84172	491.98056	1196.02087	179.21518	470.81363	1409.90430	-25.81254	159.89040	1188.11914	161.81787	148.49857	1516.15100	
157	1.560	-94.05903	1428.72632	1142.81836	4.18642	1649.06934	1325.47998	-130.36620	1557.19043	1305.09302	42.27677	1501.50293	1158.28943	-161.21330	1350.15662	1377.65906	190.10468	1380.00085	1363.38550	11.02103	1239.67859	1251.40601	15.36513	1420.65149	1418.79590	-295.77933	1046.79541	1375.55835	323.15997	1053.70691	1388.70337	-382.65140	902.46234	1252.16711	319.48752	904.63947	1208.77710	-66.13216	878.93842	1290.29321				43.20684	971.88904	1500.58325	-63.19189	488.38474	1191.13135	178.96094	470.11600	1406.14355	-28.03310	158.78236	1165.39868	161.60936	149.03293	1515.29712	
158	1.570	-95.48127	1426.76550	1135.24976	2.75586	1647.53625	1317.29846	-131.45523	1555.73022	1297.45544	40.98900	1499.76892	1149.22986	-162.22108	1348.42236	1370.74683	189.29080	1377.93335	1354.91516	9.50455	1238.17554	1243.23572	14.68055	1419.39490	1410.48596	-295.02097	1044.15112	1371.62500	321.85071	1050.70447	1377.45715	-382.49445	898.84052	1249.67981	317.73126	902.32922	1199.01294	-66.89909	877.19092	1280.72327				42.19972	969.98059	1491.79126	-64.28446	485.47812	1186.66882	178.58160	469.84814	1402.51648	-30.23240	158.62772	1144.14111	162.13544	149.86580	1514.72864	
159	1.580	-97.52168	1425.83948	1126.84863	2.29397	1645.89502	1309.10596	-132.10138	1554.33716	1289.52942	37.46973	1497.17285	1142.44617	-163.00435	1346.71667	1363.52539	188.37622	1375.93494	1345.68616	7.91986	1236.77759	1234.04602	14.80887	1417.27832	1402.75659	-294.64474	1041.98132	1367.62634	320.82108	1048.68677	1367.15039	-382.21307	895.74786	1247.83264	315.11472	900.00037	1188.69910	-68.64523	875.87689	1269.56311				41.09295	967.85730	1481.93445	-65.33417	482.50824	1181.18127	178.14145	469.67090	1398.95300	-32.32729	159.00745	1124.40430	162.34485	150.79344	1513.93152	
160	1.590	-98.77289	1424.23657	1119.80017	1.67005	1644.23157	1300.97803	-132.98819	1552.69177	1281.85193	33.72840	1497.62915	1133.92212	-163.89346	1344.89990	1356.36584	187.56049	1373.79871	1336.27332	6.11294	1235.41394	1225.12427	13.73081	1415.50500	1393.78479	-293.88010	1039.33459	1363.41553	319.10587	1046.74768	1357.27222	-382.05823	891.55756	1245.62463	312.21225	897.49579	1178.02307	-70.72243	873.52679	1261.54553				40.51228	965.90247	1472.66394	-65.11801	479.20364	1174.44141	177.60590	468.36722	1394.28369	-34.55679	159.24017	1106.60852	161.85521	151.14648	1513.33081	
161	1.600	-100.60421	1422.68640	1111.74915	0.29330	1642.79773	1293.00110	-134.48550	1551.34485	1274.25513	33.19307	1495.01489	1125.81812	-165.27054	1343.25574	1349.14258	186.30453	1371.63184	1327.48242	3.99454	1234.26379	1216.10938	13.25006	1413.41870	1384.70178	-293.21509	1036.48743	1359.38721	317.61267	1043.91760	1347.02295	-381.73657	887.84949	1243.64038	310.73727	894.49103	1168.34021	-73.16647	871.40247	1252.31299				39.48908	964.05029	1462.72681	-66.25188	476.99911	1168.04053	176.64821	468.01328	1389.64026	-36.69277	159.55263	1089.69568	161.71935	151.78745	1512.92664	
162	1.610	-102.62424	1422.00317	1103.93616	-1.20686	1641.50366	1285.10168	-135.93692	1550.05322	1266.60498	31.70623	1494.43945	1117.59387	-166.69113	1341.40088	1341.91699	184.81114	1369.85828	1317.59668	2.14918	1232.91272	1206.45239	12.18866	1412.12793	1377.85339	-292.46384	1033.74255	1354.99353	315.16559	1041.37939	1336.76111	-381.26013	883.24127	1240.67542	307.58163	891.81689	1157.90344	-74.15916	868.82495	1243.11377				38.43753	962.04950	1455.42419	-66.54327	476.17850	1160.18372	176.10808	467.73605	1385.20740	-38.62554	159.82701	1076.02258	161.34688	152.63222	1511.98547	
163	1.620	-104.76157	1420.98511	1095.77625	-2.66310	1639.92664	1277.24756	-137.68327	1548.97876	1258.87903	29.09777	1493.95447	1110.04724	-168.16054	1339.46753	1334.54480	183.49637	1367.78467	1308.46802	-0.01018	1231.33679	1197.61768	11.42314	1410.32166	1369.16638	-292.10815	1030.89368	1350.70154	313.08618	1039.42578	1325.71924	-380.06909	878.71899	1238.72656	304.63333	889.38080	1148.57227	-75.95638	866.64484	1234.24500				36.85326	960.31744	1445.85107	-67.18469	474.53894	1151.77136	174.62453	466.72934	1380.33521	-40.31247	160.15298	1063.43262	161.20882	153.33409	1510.49121	
164	1.630	-106.86124	1420.48816	1087.69568	-3.87234	1638.41309	1269.30017	-139.54189	1547.92285	1251.13025	27.72878	1491.93945	1101.71924	-169.79170	1337.69397	1327.18420	182.18408	1365.78247	1299.86890	-2.18292	1230.73584	1187.86206	9.65287	1408.81165	1360.29980	-290.74332	1027.77441	1346.10925	311.34372	1037.12964	1316.15137	-378.89993	874.38751	1236.35120	302.05539	886.96582	1138.68555	-77.96262	865.12201	1225.38367				36.04602	958.39642	1435.83447	-67.96542	472.84106	1143.02551	173.69579	466.06430	1374.38647	-41.81857	158.84190	1053.19690	161.24248	154.25063	1509.36902	
165	1.640	-109.31989	1419.86670	1079.14600	-5.22395	1637.04553	1261.40198	-141.12180	1546.76367	1243.27319	24.39458	1491.14417	1092.25159	-171.47905	1336.19287	1319.55237	179.66710	1363.61572	1288.55286	-4.59176	1229.39111	1179.13684	8.67827	1406.95508	1351.94165	-290.39490	1025.18103	1341.40576	308.15720	1034.84326	1305.75647	-377.31650	869.59412	1233.73450	299.07727	883.90497	1128.90027	-80.61250	863.23358	1215.49438				35.26538	956.84229	1426.27551	-69.34543	471.79611	1133.46887	172.94408	465.27789	1368.82239	-42.92854	156.87421	1044.84717	161.03117	155.83652	1508.52063	
166	1.650	-112.03330	1419.61328	1070.57361	-7.01016	1636.08960	1253.34473	-143.08983	1546.10522	1235.35046	22.29897	1491.48145	1083.75220	-173.27931	1334.42163	1311.97522	177.89169	1361.70813	1279.12756	-7.53490	1228.76648	1169.30396	7.26884	1405.33716	1342.77185	-289.75580	1022.60168	1336.57959	305.70050	1032.38098	1295.58728	-375.85037	864.87329	1231.06494	296.09875	881.37463	1118.85718	-82.16120	861.39069	1206.31348				34.38442	955.25665	1416.30151	-70.94368	470.45001	1123.79272	172.11084	464.51276	1362.54211	-43.18108	154.42853	1038.70020	161.43524	157.05391	1505.99060	
167	1.660	-114.73145	1419.53357	1061.98108	-8.48072	1634.98962	1245.20605	-144.74323	1545.19885	1227.30078	16.95172	1491.37158	1076.86646	-175.49364	1332.99963	1304.58875	175.95761	1360.53601	1268.97009	-9.96707	1227.22693	1159.80444	5.02206	1404.42383	1334.00964	-289.15396	1020.03430	1331.78601	302.67828	1030.56409	1286.00354	-373.86407	860.26703	1229.07251	293.00500	878.87537	1109.24622	-84.30363	859.65015	1195.75928				33.02015	953.95758	1405.86267	-71.60033	468.78302	1113.93018	170.90215	463.74243	1356.10266	-42.71229	151.34636	1034.45776	161.33534	158.57320	1503.90759	
168	1.670	-117.52490	1419.68823	1053.43054	-10.21622	1633.54871	1237.14307	-146.79283	1544.21472	1219.28601	15.58175	1491.05554	1066.88428	-177.71483	1331.87927	1296.72937	173.77701	1359.23438	1259.36890	-13.51275	1226.74023	1150.82239	2.79937	1403.26831	1325.64917	-287.69214	1017.25415	1326.81738	299.63327	1028.77747	1275.10266	-371.49152	855.46301	1226.26831	289.02237	876.31921	1099.57507	-86.73988	858.15442	1186.60583				32.29958	952.78619	1395.50745	-73.42357	467.86227	1103.11829	170.11371	463.56088	1348.22131	-41.94397	147.32402	1032.66711	161.70464	160.21376	1502.23901	
